<svg width="79" height="82" viewBox="0 0 79 82" fill="none" xmlns="http://www.w3.org/2000/svg">
<path d="M78.5 41C78.5 63.3853 61.0217 81.5 39.5 81.5C17.9783 81.5 0.5 63.3853 0.5 41C0.5 18.6147 17.9783 0.5 39.5 0.5C61.0217 0.5 78.5 18.6147 78.5 41Z" fill="#FFFCFC" stroke="#EE3037"/>
<path d="M47.0184 45.3403H34.3709C33.4742 45.3403 32.8136 44.3627 32.8136 43.1897C32.8136 41.9514 33.5214 41.0391 34.3709 41.0391H47.0184C47.915 41.0391 48.5757 42.0166 48.5757 43.1897C48.5757 44.3627 47.8679 45.3403 47.0184 45.3403Z" fill="#FAF0D7"/>
<path d="M47.0184 49.6416H33.899C33.0023 49.6416 32.3417 48.664 32.3417 47.4909C32.3417 46.2527 33.0495 45.3403 33.899 45.3403H47.0184C47.9151 45.3403 48.5757 46.3179 48.5757 47.4909C48.5757 48.664 47.8679 49.6416 47.0184 49.6416Z" fill="#FAF0D7"/>
<path d="M47.0184 53.8776H33.899C33.0495 53.8776 32.3417 52.9652 32.3417 51.727V51.6618C32.3417 50.4888 33.0023 49.5112 33.899 49.5112H47.0184C47.8679 49.5112 48.5757 50.4236 48.5757 51.6618V51.727C48.5757 52.9652 47.8679 53.8776 47.0184 53.8776Z" fill="#FAF0D7"/>
<path d="M47.0184 58.244H33.899C33.0495 58.244 32.3417 57.3316 32.3417 56.0933V56.0282C32.3417 54.8551 33.0023 53.8776 33.899 53.8776H47.0184C47.8679 53.8776 48.5757 54.7899 48.5757 56.0282V56.0933C48.5757 57.2012 47.8679 58.244 47.0184 58.244Z" fill="#FAF0D7"/>
<path d="M47.0184 62.4801H33.899C33.0495 62.4801 32.3417 61.5677 32.3417 60.3295C32.3417 59.1564 33.0023 58.1788 33.899 58.1788H47.0184C47.8679 58.1788 48.5757 59.0912 48.5757 60.3295C48.5757 61.5025 47.8679 62.4801 47.0184 62.4801Z" fill="#FAF0D7"/>
<path d="M47.0184 66.7812H33.899C33.0495 66.7812 32.3417 65.8688 32.3417 64.6306C32.3417 63.4575 33.0023 62.48 33.899 62.48H47.0184C47.8679 62.48 48.5757 63.3924 48.5757 64.6306C48.5757 65.8037 47.8679 66.7812 47.0184 66.7812Z" fill="#FAF0D7"/>
<path d="M39.6092 14.9059H43.9981C43.9981 14.9059 47.4431 15.8183 47.4431 20.4453C47.4431 25.0724 44.0453 26.1803 44.0453 26.1803V33.2187L47.0184 41.0391H34.7484L37.1552 34.6524V25.3331C37.1552 25.3331 34.9844 23.8994 34.9844 20.3802C34.9844 16.0789 37.2024 14.9059 39.6092 14.9059Z" fill="#FAF0D7"/>
<path d="M38.3823 30.0253L40.1284 34.6523C40.1284 34.6523 40.5531 37.9109 38.3823 38.0412C36.2114 38.1715 36.4474 35.1085 36.4474 35.1085L38.3823 30.0253Z" fill="white"/>
<path d="M40.9306 11.9081H39.0429V14.8407H40.9306V11.9081Z" fill="#FAF0D7"/>
<path d="M44.4228 75.7096H35.5979C34.0877 75.7096 32.9079 74.0803 32.9079 71.9949V66.7812H47.2072V71.9949C47.1128 74.0803 45.933 75.7096 44.4228 75.7096Z" fill="#FAF0D7"/>
<path d="M38.1935 11.9081H41.6385V8.91023C41.6385 7.28098 40.6947 5.97758 39.5149 5.97758H38.1935C38.1935 5.91241 38.1935 11.9081 38.1935 11.9081Z" fill="#FAF0D7"/>
<path d="M41.5913 12.8204H35.3147C34.9372 12.8204 34.654 12.3642 34.654 11.908V7.93265C34.654 6.36857 35.5979 5 36.7777 5H40.1283C41.3081 5 42.252 6.36857 42.252 7.93265V11.908C42.2992 12.4294 41.9688 12.8204 41.5913 12.8204ZM35.9282 11.0608H40.9306V7.99782C40.9306 7.34612 40.5531 6.82476 40.0811 6.82476H36.7305C36.2586 6.82476 35.881 7.34612 35.881 7.99782V11.0608H35.9282Z" fill="#ED1B2F"/>
<path d="M40.8835 15.8182H35.7868C35.4092 15.8182 35.1261 15.362 35.1261 14.9058V11.908C35.1261 11.3866 35.4564 10.9956 35.7868 10.9956H40.8835C41.261 10.9956 41.5442 11.4518 41.5442 11.908V14.9058C41.5442 15.4272 41.261 15.8182 40.8835 15.8182ZM36.4474 13.9934H40.2228V12.8204H36.4474V13.9934Z" fill="#ED1B2F"/>
<path d="M30.1708 41.6256C30.0764 41.6256 29.982 41.6256 29.8404 41.4953C29.5101 41.2998 29.4157 40.7132 29.5573 40.2571L32.2 33.6097V26.1151C32.2 25.5938 32.5304 25.2028 32.8607 25.2028C33.1911 25.2028 33.5214 25.6589 33.5214 26.1151V33.8052C33.5214 33.9356 33.4742 34.0659 33.427 34.2614L30.7371 41.1694C30.6427 41.4301 30.4067 41.6256 30.1708 41.6256Z" fill="#ED1B2F"/>
<path d="M46.7352 41.5604C46.5465 41.5604 46.2633 41.4301 46.1689 41.0391L43.479 34.131C43.4318 34.0007 43.3846 33.8704 43.3846 33.6749V26.05C43.3846 25.8544 43.4318 25.5286 43.5734 25.3983C43.7149 25.2679 43.9037 25.1376 44.0453 25.1376C44.4228 25.1376 44.706 25.5938 44.706 26.05C44.706 26.1151 44.706 26.1803 44.706 26.1803V33.4142L47.3487 40.0615C47.4903 40.5177 47.3959 41.0391 47.0656 41.2998C46.9712 41.5604 46.8768 41.5604 46.7352 41.5604Z" fill="#ED1B2F"/>
<path d="M47.0184 67.6936H30.218C28.991 67.6936 28 66.325 28 64.6306C28 62.9362 28.991 61.5676 30.218 61.5676H47.0184C48.2454 61.5676 49.2365 62.9362 49.2365 64.6306C49.2365 66.325 48.1982 67.6936 47.0184 67.6936ZM30.1708 63.3272C29.6517 63.3272 29.2742 63.9138 29.2742 64.5655C29.2742 65.2823 29.6989 65.8689 30.1708 65.8689H46.9712C47.4904 65.8689 47.9151 65.2823 47.9151 64.6306C47.9151 63.9789 47.4904 63.3924 46.9712 63.3924L30.1708 63.3272Z" fill="#ED1B2F"/>
<path d="M47.0184 63.3923H30.218C28.991 63.3923 28 62.0238 28 60.3294C28 58.6349 28.991 57.2664 30.218 57.2664H47.0184C48.2454 57.2664 49.2365 58.6349 49.2365 60.3294C49.2365 62.0238 48.1982 63.3923 47.0184 63.3923ZM30.1708 59.0911C29.6517 59.0911 29.2742 59.6777 29.2742 60.3294C29.2742 61.0462 29.6989 61.6328 30.1708 61.6328H46.9712C47.4904 61.6328 47.9151 61.0462 47.9151 60.3945C47.9151 59.7428 47.4904 59.1563 46.9712 59.1563L30.1708 59.0911Z" fill="#ED1B2F"/>
<path d="M47.0184 59.0912H30.218C28.991 59.0912 28 57.7226 28 56.0282C28 54.3338 28.991 52.9652 30.218 52.9652H47.0184C48.2454 52.9652 49.2365 54.3338 49.2365 56.0282C49.2365 57.7226 48.1982 59.0912 47.0184 59.0912ZM30.1708 54.79C29.6517 54.79 29.2742 55.3765 29.2742 56.0282C29.2742 56.7451 29.6989 57.3316 30.1708 57.3316H46.9712C47.4904 57.3316 47.9151 56.7451 47.9151 56.0934C47.9151 55.4417 47.4904 54.8551 46.9712 54.8551L30.1708 54.79Z" fill="#ED1B2F"/>
<path d="M47.0184 54.8551H30.218C28.991 54.8551 28 53.4865 28 51.7921C28 50.0977 28.991 48.7291 30.218 48.7291H47.0184C48.2454 48.7291 49.2365 50.0977 49.2365 51.7921C49.2365 53.4865 48.1982 54.8551 47.0184 54.8551ZM30.1708 50.4887C29.6517 50.4887 29.2742 51.0752 29.2742 51.7269C29.2742 52.4438 29.6989 53.0304 30.1708 53.0304H46.9712C47.4904 53.0304 47.9151 52.4438 47.9151 51.7921C47.9151 51.1404 47.4904 50.5539 46.9712 50.5539L30.1708 50.4887Z" fill="#ED1B2F"/>
<path d="M47.0184 50.5538H30.218C28.991 50.5538 28 49.1853 28 47.4908C28 45.7964 28.991 44.4279 30.218 44.4279H47.0184C48.2454 44.4279 49.2365 45.7964 49.2365 47.4908C49.1893 49.1853 48.1982 50.5538 47.0184 50.5538ZM30.1708 46.2526C29.6517 46.2526 29.2742 46.8391 29.2742 47.556C29.2742 48.2729 29.6989 48.7942 30.1708 48.7942H46.9712C47.4904 48.7942 47.9151 48.2077 47.9151 47.556C47.9151 46.8391 47.4904 46.3178 46.9712 46.3178L30.1708 46.2526Z" fill="#ED1B2F"/>
<path d="M47.0184 46.3179H30.218C28.991 46.3179 28 44.9493 28 43.2549C28 41.5605 28.991 40.1919 30.218 40.1919H47.0184C48.2454 40.1919 49.2365 41.5605 49.2365 43.2549C49.2365 44.9493 48.1982 46.3179 47.0184 46.3179ZM30.1708 41.8863C29.6517 41.8863 29.2742 42.4728 29.2742 43.1897C29.2742 43.9066 29.6989 44.428 30.1708 44.428H46.9712C47.4904 44.428 47.9151 43.8414 47.9151 43.1897C47.9151 42.538 47.4904 41.9515 46.9712 41.9515L30.1708 41.8863Z" fill="#ED1B2F"/>
<path d="M32.7664 26.7668C32.7192 26.7668 32.7192 26.7668 32.672 26.7668C30.454 26.2454 28.7551 23.6386 28.7551 20.4453C28.7551 16.9261 30.8315 14.0586 33.3799 14.0586H43.4318C45.9802 14.0586 48.0566 16.9261 48.0566 20.4453C48.0566 23.5083 46.4521 26.1802 44.1869 26.7668C43.8093 26.8319 43.5262 26.5713 43.3846 26.0499C43.3374 25.5285 43.5262 25.1375 43.9037 24.942C45.5083 24.551 46.6409 22.661 46.6409 20.4453C46.6409 17.9036 45.1307 15.8182 43.2902 15.8182H33.4271C31.5866 15.8182 30.0764 17.9036 30.0764 20.4453C30.0764 22.7262 31.2562 24.6162 32.8608 24.942C33.2383 25.0072 33.4743 25.5285 33.3799 25.9196C33.3327 26.5061 33.0967 26.7668 32.7664 26.7668Z" fill="#ED1B2F"/>
<path d="M41.9217 26.9623H41.0722C40.6947 26.9623 40.4115 26.5061 40.4115 26.05C40.4115 25.5938 40.7419 25.1376 41.0722 25.1376H41.9217C42.2992 25.1376 42.5824 25.5938 42.5824 26.05C42.5824 26.5713 42.2992 26.9623 41.9217 26.9623Z" fill="#ED1B2F"/>
<path d="M39.2318 26.9623H38.3823C38.0048 26.9623 37.7216 26.5061 37.7216 26.05C37.7216 25.5938 38.052 25.1376 38.3823 25.1376H39.2318C39.6093 25.1376 39.8924 25.5938 39.8924 26.05C39.8924 26.5061 39.5621 26.9623 39.2318 26.9623Z" fill="#ED1B2F"/>
<path d="M36.4473 26.9623H35.4091C35.0316 26.9623 34.7484 26.5061 34.7484 26.05C34.7484 25.5938 35.0788 25.1376 35.4091 25.1376H36.4473C36.8249 25.1376 37.108 25.5938 37.108 26.05C37.108 26.5061 36.8249 26.9623 36.4473 26.9623Z" fill="#ED1B2F"/>
<path d="M43.6677 76.8175H33.2855C31.0674 76.8175 29.227 74.2759 29.227 71.2129V66.9117C29.227 66.3903 29.5573 65.9993 29.8876 65.9993H47.16C47.5375 65.9993 47.8207 66.4555 47.8207 66.9117V71.2129C47.7735 74.2759 45.933 76.8175 43.6677 76.8175ZM30.5483 67.7589V71.2129C30.5483 73.2983 31.7753 74.9927 33.2855 74.9927H43.6677C45.1779 74.9927 46.4049 73.2983 46.4049 71.2129V67.7589H30.5483Z" fill="#ED1B2F"/>
<path d="M40.27 35.3041C40.27 36.7379 39.4206 37.9761 38.3352 37.9761C37.2969 37.9761 36.4003 36.803 36.4003 35.3041C36.4003 33.8704 38.3352 29.8298 38.3352 29.8298C38.3352 29.8298 40.27 33.8704 40.27 35.3041Z" fill="#ED1B2F"/>
</svg>
