<svg width="79" height="82" viewBox="0 0 79 82" fill="none" xmlns="http://www.w3.org/2000/svg">
<path d="M78.5 41C78.5 63.3853 61.0217 81.5 39.5 81.5C17.9783 81.5 0.5 63.3853 0.5 41C0.5 18.6147 17.9783 0.5 39.5 0.5C61.0217 0.5 78.5 18.6147 78.5 41Z" fill="#FFFCFC" stroke="#EE3037"/>
<path d="M60.7165 65.0237H18.3409C17.5606 65.0237 16.9604 63.9233 16.9604 62.7229C16.9604 62.0226 17.3205 61.5225 17.6807 61.5225H61.5568C61.977 61.5225 62.2771 62.1227 62.2771 62.7229C62.097 63.9233 61.4968 65.0237 60.7165 65.0237Z" fill="#FAF0D7"/>
<path d="M61.2567 26.3094H18.3409V61.4224H61.2567V26.3094Z" fill="#FAF0D7"/>
<path d="M17.8606 57.3208C17.8606 57.3208 20.2615 57.1207 21.702 50.8184C23.1425 44.5161 23.2626 39.5143 26.4438 37.0133C29.685 34.5124 35.267 34.4124 37.7879 31.7114C40.3089 29.0104 41.9895 26.4094 41.9895 26.4094H18.3408L17.8606 57.3208Z" fill="white"/>
<path d="M18.7611 26.3094H17.0204V61.3224H18.7611V26.3094Z" fill="#ED1B2F"/>
<path d="M62.0971 26.3094H60.3565V61.3224H62.0971V26.3094Z" fill="#ED1B2F"/>
<path d="M61.0166 28.1101H18.0408C16.9003 28.1101 16 26.6095 16 24.7088V23.8085C16 21.9078 16.9003 20.4072 18.0408 20.4072H60.9566C62.097 20.4072 62.9973 21.9078 62.9973 23.8085V24.7088C63.0574 26.6095 62.097 28.1101 61.0166 28.1101ZM18.0408 23.4083C17.9207 23.4083 17.7406 23.6084 17.7406 23.9085V24.8089C17.7406 25.0089 17.8607 25.309 18.0408 25.309H60.9566C61.0766 25.309 61.2567 25.109 61.2567 24.8089V23.9085C61.2567 23.7084 61.1366 23.4083 60.9566 23.4083H18.0408Z" fill="#ED1B2F"/>
<path d="M61.0166 67.0244H18.0408C16.9003 67.0244 16 65.5238 16 63.6231V62.7228C16 60.8221 16.9003 59.3215 18.0408 59.3215H60.9566C62.097 59.3215 62.9973 60.8221 62.9973 62.7228V63.6231C63.0574 65.4238 62.097 67.0244 61.0166 67.0244ZM18.0408 62.2226C17.9207 62.2226 17.7406 62.4227 17.7406 62.7228V63.6231C17.7406 63.8232 17.8607 64.1233 18.0408 64.1233H60.9566C61.0766 64.1233 61.2567 63.9232 61.2567 63.6231V62.7228C61.2567 62.5227 61.1366 62.2226 60.9566 62.2226H18.0408Z" fill="#ED1B2F"/>
<path d="M61.1367 38.414C37.1878 31.6114 18.2809 38.3139 18.0408 38.414L17.6806 35.5129C17.9207 35.4128 37.1878 28.6103 61.4968 35.5129L61.1367 38.414Z" fill="#ED1B2F"/>
<path d="M39.2286 55.3201C26.3238 55.3201 17.7406 52.319 17.6206 52.319L17.9807 49.418C18.2208 49.518 37.1278 56.2205 61.0766 49.418L61.3767 52.319C53.3338 54.5199 45.771 55.3201 39.2286 55.3201Z" fill="#ED1B2F"/>
<path d="M46.3112 46.0167H44.5105C44.0303 46.0167 43.6102 45.3165 43.6102 44.5162C43.6102 43.7159 44.0303 43.0156 44.5105 43.0156H46.3112C46.7913 43.0156 47.2115 43.7159 47.2115 44.5162C47.2115 45.3165 46.8514 46.0167 46.3112 46.0167Z" fill="#ED1B2F"/>
<path d="M40.6691 46.0167H38.8684C38.3882 46.0167 37.9681 45.3165 37.9681 44.5162C37.9681 43.7159 38.3882 43.0156 38.8684 43.0156H40.6691C41.1492 43.0156 41.5694 43.7159 41.5694 44.5162C41.5094 45.3165 41.1492 46.0167 40.6691 46.0167Z" fill="#ED1B2F"/>
<path d="M34.6669 46.0167H32.446C31.9659 46.0167 31.5457 45.3165 31.5457 44.5162C31.5457 43.7159 31.9659 43.0156 32.446 43.0156H34.6669C35.147 43.0156 35.5672 43.7159 35.5672 44.5162C35.6272 45.3165 35.2071 46.0167 34.6669 46.0167Z" fill="#ED1B2F"/>
<path d="M53.2738 22.7081C52.9136 22.7081 52.5535 22.308 52.4335 21.8078C52.3734 21.6077 52.3734 21.3076 52.3734 21.1075C52.0133 21.5077 51.6532 21.9078 51.293 22.408C50.9329 23.0082 50.3927 22.9082 50.0926 22.308C49.7925 21.7077 49.8525 20.8074 50.2127 20.2072C53.0337 16.5058 55.8547 14.5051 57.2953 15.1053C57.7754 15.3054 58.1356 15.7055 58.2556 16.4058C58.3757 16.906 58.3757 17.5062 58.2556 17.9063C57.8355 19.5069 55.4346 21.5077 53.5139 22.8082C53.5139 22.7081 53.3338 22.7081 53.2738 22.7081Z" fill="#ED1B2F"/>
</svg>
