<svg width="79" height="82" viewBox="0 0 79 82" fill="none" xmlns="http://www.w3.org/2000/svg">
<path d="M78.5 41C78.5 63.3853 61.0217 81.5 39.5 81.5C17.9783 81.5 0.5 63.3853 0.5 41C0.5 18.6147 17.9783 0.5 39.5 0.5C61.0217 0.5 78.5 18.6147 78.5 41Z" fill="#FFFCFC" stroke="#EE3037"/>
<path d="M29.6829 67.716C28.7686 67.716 27.6433 67.4296 26.6587 65.9974C25.1818 63.7631 24.7598 59.2373 25.3928 54.1959C26.0961 48.8107 27.995 43.9984 30.4566 40.9048C31.7928 39.358 33.1994 38.4987 34.6764 38.4414C36.3643 38.3841 38.0522 39.2434 39.8105 41.0767C39.8808 41.134 41.2874 42.6808 41.9204 43.712C44.593 47.7795 49.9381 57.2895 50.7117 61.758C51.0633 63.935 50.782 65.5391 49.6567 66.5703C48.6018 67.6015 47.3358 67.716 47.1952 67.716C47.2655 67.716 29.6829 67.716 29.6829 67.716ZM34.9577 39.9309C33.9027 39.9309 32.9885 40.5038 32.0742 41.7069C27.0807 47.6649 25.5334 61.0705 28.2763 65.2526C28.6983 65.8828 29.1906 66.2265 29.6829 66.2265H47.3358C47.2655 66.2265 47.8985 66.1692 48.4611 65.6536C49.0941 64.9089 49.3754 63.7058 49.0238 61.9872C48.2501 57.7478 42.905 48.2951 40.3731 44.3995C39.8105 43.4828 38.4039 41.9933 38.4039 41.9933C37.2786 40.6757 36.0127 39.9309 34.9577 39.9309Z" fill="#ED1B2F"/>
<path d="M42.7214 22.5151H29.0773C28.585 22.5151 28.163 22.2286 28.0927 21.7703L27.53 14.4946C27.53 14.3228 27.6004 14.0936 27.741 13.979C27.8817 13.8072 28.163 13.7499 28.374 13.7499H43.3543C43.5653 13.7499 43.8467 13.8072 43.9873 13.979C44.128 14.1509 44.2686 14.3228 44.1983 14.4946L43.6357 21.8276C43.6357 22.2286 43.2137 22.5151 42.7214 22.5151ZM29.9213 21.0256H41.8774L42.3697 15.2394H29.3586L29.9213 21.0256Z" fill="#ED1B2F"/>
<path d="M41.5257 15.2394C41.0334 15.2394 40.5411 14.8956 40.5411 14.4373V12.5468H31.1872V14.4373C31.1872 14.8384 30.7652 15.2394 30.2025 15.2394C29.6399 15.2394 29.2179 14.8956 29.2179 14.4373V11.802C29.2179 11.401 29.6399 11 30.2025 11H41.5961C42.0884 11 42.5807 11.3437 42.5807 11.802V14.4373C42.5104 14.8384 42.1587 15.2394 41.5257 15.2394Z" fill="#ED1B2F"/>
<path d="M51.4381 71.0291H27.0335C24.7126 71.0291 22.6027 69.6541 22.1807 67.7636C21.4774 64.6127 20.3521 57.8526 21.4774 48.5145C22.04 43.5877 26.8225 30.1248 27.1741 29.0936L28.6511 21.9325C28.7214 21.5314 29.2137 21.3023 29.706 21.3596C30.1983 21.4169 30.6203 21.8179 30.4093 22.2189L28.9324 29.4373V29.4946C28.8621 29.6092 23.8686 43.8741 23.306 48.6864C22.251 57.8526 23.306 64.3835 24.0093 67.5344C24.2906 68.7375 25.5565 69.5395 27.0335 69.5395H51.5787C53.0557 69.5395 54.392 68.6802 54.603 67.5344C55.6579 62.9513 57.2052 54.4153 55.5173 48.4572C53.759 42.5565 50.2425 38.1452 47.2183 34.2496C45.3897 31.9007 43.6314 29.781 42.4358 27.4895C41.6622 26.2291 41.4512 22.4481 41.3809 22.047C41.3809 21.646 41.7325 21.245 42.2952 21.245C42.7875 21.245 43.2798 21.5314 43.2798 21.9898C43.3501 23.4793 43.6314 26.1146 43.9831 26.9166C45.1084 29.0936 46.8666 31.156 48.6249 33.4475C51.7897 37.4578 55.4469 41.9836 57.2052 48.1135C58.9634 54.2434 57.4162 63.1232 56.2909 67.8209C55.8689 69.6541 53.8293 71.0291 51.4381 71.0291ZM49.8908 50.1186C49.8205 50.1186 49.7502 50.1186 49.6798 50.1186C48.9765 50.0613 48.2732 49.7176 47.9216 49.0874L45.038 44.5043C44.5457 43.645 43.8424 42.8429 43.1391 42.0982L39.9039 38.8327C38.7786 37.6869 38.849 36.0255 40.1149 35.0516C40.8182 34.4787 41.8732 34.1923 42.9281 34.2496C43.9831 34.3642 44.827 34.7652 45.3897 35.4526L47.8512 38.4317C49.1875 40.0358 50.1018 41.8117 50.7348 43.7595L51.9304 47.9416C52.0711 48.4572 51.9304 49.0874 51.5084 49.4884C51.1568 49.8895 50.6645 50.1186 49.8908 50.1186ZM49.8908 48.6291C50.0315 48.6291 50.1018 48.5718 50.1721 48.5145C50.1721 48.4572 50.2425 48.3999 50.2425 48.2854L49.0469 44.1033C48.5545 42.3846 47.7106 40.7805 46.4446 39.3483L43.9831 36.3693C43.7018 36.0828 43.3501 35.8537 42.7875 35.8537C42.3655 35.7964 41.8028 35.911 41.4512 36.1974C40.8885 36.5984 40.8885 37.4005 41.3809 37.9734L44.6161 41.2388C45.3897 42.0982 46.093 42.9575 46.6556 43.8741L49.5392 48.4572C49.6798 48.5145 49.8205 48.6291 49.8908 48.6291Z" fill="#ED1B2F"/>
</svg>
