<svg width="79" height="82" viewBox="0 0 79 82" fill="none" xmlns="http://www.w3.org/2000/svg">
<path d="M78.5 41C78.5 63.3853 61.0217 81.5 39.5 81.5C17.9783 81.5 0.5 63.3853 0.5 41C0.5 18.6147 17.9783 0.5 39.5 0.5C61.0217 0.5 78.5 18.6147 78.5 41Z" fill="#FFFCFC" stroke="#EE3037"/>
<path d="M14.3297 56.1032L9.74505 56.7853L9.74506 24.3003L14.3297 25.0677L61.8376 25.0677L67.6257 24.3003L67.6257 56.7853L61.8376 56.1032L14.3297 56.1032Z" fill="#F9EFD7"/>
<path d="M9.74499 29.5013C9.74499 29.5013 9.34384 23.874 11.0058 24.3856C12.6677 24.8972 30.2611 25.2382 38.628 25.2382C46.9949 25.2382 62.5826 25.2382 62.5826 25.2382C62.5826 25.2382 67.511 23.533 67.511 24.3856C67.511 25.2382 67.511 45.1896 67.511 45.1896C67.511 45.1896 63.1556 41.5233 59.8318 34.1908C57.1956 28.4782 41.8945 30.5245 29.0576 30.695C14.2723 31.0361 9.74499 29.5013 9.74499 29.5013Z" fill="white"/>
<path d="M14.1004 55.1652L14.1004 25.9202C14.1004 24.8118 14.7308 24.0444 15.3612 24.0444L61.8376 24.0444C62.5826 24.0444 63.0983 24.9823 63.0983 25.9202L63.0983 55.2505C63.0983 56.3589 62.468 57.1263 61.8376 57.1263L15.4185 57.1263C14.7308 57.1263 14.1004 56.2736 14.1004 55.1652ZM15.6477 26.3465L15.6477 54.9094L61.551 54.9094L61.551 26.3465L15.6477 26.3465Z" fill="#EB1E30"/>
<path d="M61.551 55.1653L61.551 25.9202C61.551 24.8971 62.0668 24.0445 62.7545 23.8739L66.8806 23.0213C67.2818 22.9361 67.6829 23.1066 67.9695 23.5329C68.3133 23.8739 68.4852 24.4708 68.4852 25.0676L68.4852 55.8474C68.4852 56.4442 68.3133 57.041 67.9695 57.3821C67.6256 57.7231 67.2818 57.9789 66.8806 57.8937L62.7545 57.1263C62.0668 57.041 61.551 56.2737 61.551 55.1653ZM63.1556 26.0908L63.1556 54.9095L66.8806 55.5916L66.8806 25.4939L63.1556 26.0908Z" fill="#EB1E30"/>
<path d="M8.99998 56.0176L8.99999 25.0673C8.99999 24.4705 9.17191 23.8737 9.51576 23.5326C9.8596 23.1916 10.2034 22.9358 10.6046 23.021L14.5015 23.7884C15.1892 23.8737 15.705 24.8116 15.705 25.8347L15.705 55.165C15.705 56.1881 15.1892 57.0408 14.5015 57.2113L10.6046 57.9786C10.2034 58.0639 9.80229 57.8934 9.51575 57.4671C9.17191 57.0408 8.99998 56.5292 8.99998 56.0176ZM10.5473 25.4937L10.5473 55.7618L14.1577 55.0797L14.1577 26.0905L10.5473 25.4937Z" fill="#EB1E30"/>
<path d="M19.6019 45.5306L19.6019 34.958C19.6019 32.0591 21.1492 29.6718 23.155 29.6718L54.9606 29.6718C56.9091 29.6718 58.5137 31.9738 58.5137 34.958L58.5137 45.5306C58.5137 48.4295 56.9664 50.8168 54.9606 50.8168L23.0976 50.8168C21.2065 50.7316 19.6019 48.3442 19.6019 45.5306ZM56.8518 34.958C56.8518 33.4233 55.9922 32.0591 54.9033 32.0591L23.0403 32.0591C22.0088 32.0591 21.0919 33.338 21.0919 34.958L21.0919 45.5306C21.0919 47.0653 21.9515 48.4295 23.0403 48.4295L54.9606 48.4295C55.9922 48.4295 56.9091 47.1506 56.9091 45.5306C56.8518 45.5306 56.8518 34.958 56.8518 34.958Z" fill="#EC1E31"/>
<path opacity="0.5" d="M34.2449 38.6424C34.2449 40.768 32.397 42.5453 30.0484 42.5453C27.6999 42.5453 25.852 40.768 25.852 38.6424C25.852 36.5168 27.6999 34.7395 30.0484 34.7395C32.397 34.7395 34.2449 36.5168 34.2449 38.6424Z" stroke="#EB1E30"/>
<path opacity="0.5" d="M32.1734 36.1253C33.51 36.7595 34.1662 38.9525 33.2297 40.0677C32.2933 41.183 31.1168 40.89 31.3089 40.5824C31.5009 40.2748 33.3418 37.925 30.2525 36.64C29.7835 36.4449 30.8368 35.4911 32.1734 36.1253Z" fill="#ED1B2F"/>
<path opacity="0.5" d="M45.9548 43.838C45.4046 41.7848 46.7296 39.5898 48.9981 38.9819C51.2666 38.3741 53.5115 39.6125 54.0617 41.6657C54.6118 43.7189 53.2869 45.9139 51.0184 46.5217C48.7499 47.1296 46.5049 45.8911 45.9548 43.838Z" stroke="#EB1E30"/>
<path opacity="0.5" d="M51.1215 37.8071C50.8526 36.8036 51.4979 35.7027 52.6468 35.3948C53.7957 35.087 54.905 35.7177 55.1739 36.7213C55.4428 37.7248 54.7975 38.8257 53.6486 39.1336C52.4997 39.4414 51.3904 38.8107 51.1215 37.8071Z" stroke="#EB1E30"/>
<path opacity="0.5" d="M22.3558 36.0459C22.0869 35.0423 22.7323 33.9414 23.8811 33.6336C25.03 33.3257 26.1393 33.9565 26.4082 34.96C26.6771 35.9636 26.0318 37.0645 24.8829 37.3724C23.7341 37.6802 22.6247 37.0494 22.3558 36.0459Z" stroke="#EB1E30"/>
<path opacity="0.5" d="M48.6071 45.7332C47.1519 45.4665 45.9505 43.5181 46.5664 42.1985C47.1822 40.8789 48.3945 40.8574 48.2886 41.2042C48.1826 41.551 47.0126 44.2973 50.3293 44.7389C50.8328 44.8059 50.0623 45.9999 48.6071 45.7332Z" fill="#ED1B2F"/>
</svg>
