<svg width="79" height="82" viewBox="0 0 79 82" fill="none" xmlns="http://www.w3.org/2000/svg">
<path d="M78.5 41C78.5 63.3853 61.0217 81.5 39.5 81.5C17.9783 81.5 0.5 63.3853 0.5 41C0.5 18.6147 17.9783 0.5 39.5 0.5C61.0217 0.5 78.5 18.6147 78.5 41Z" fill="#FFFCFC" stroke="#EE3037"/>
<path d="M54.1573 66.6083L54.8199 71.0619H23.2631L24.0085 66.6083V20.4578L23.2631 14.8351H54.8199L54.1573 20.4578V66.6083Z" fill="#F9EFD7"/>
<path d="M28.3155 71.0619C28.3155 71.0619 22.849 71.4516 23.3459 69.8372C23.8429 68.2227 24.1742 51.132 24.1742 43.0042C24.1742 34.8763 24.1742 19.734 24.1742 19.734C24.1742 19.734 22.5177 14.9464 23.3459 14.9464C24.1742 14.9464 43.5555 14.9464 43.5555 14.9464C43.5555 14.9464 39.994 19.1773 32.871 22.4062C27.3216 24.967 29.3094 39.831 29.4751 52.3011C29.8064 66.664 28.3155 71.0619 28.3155 71.0619Z" fill="white"/>
<path d="M53.2462 66.831H24.8368C23.76 66.831 23.0146 66.2186 23.0146 65.6063V20.4578C23.0146 19.7341 23.9257 19.233 24.8368 19.233H53.329C54.4058 19.233 55.1512 19.8454 55.1512 20.4578V65.5506C55.1512 66.2186 54.3229 66.831 53.2462 66.831ZM25.2509 65.3279H52.9977V20.7361H25.2509V65.3279Z" fill="#EB1E30"/>
<path d="M53.2462 20.7361H24.8368C23.8429 20.7361 23.0146 20.2351 22.849 19.567L22.0207 15.5588C21.9379 15.1691 22.1035 14.7794 22.5177 14.501C22.849 14.167 23.4288 14 24.0085 14H53.9088C54.4886 14 55.0684 14.167 55.3997 14.501C55.731 14.8351 55.9795 15.1691 55.8967 15.5588L55.1512 19.567C55.0684 20.2351 54.323 20.7361 53.2462 20.7361ZM25.0025 19.1773H52.9977L53.6604 15.5588H24.4227L25.0025 19.1773Z" fill="#EB1E30"/>
<path d="M54.0743 71.7856H24.0084C23.4286 71.7856 22.8488 71.6186 22.5175 71.2846C22.1862 70.9506 21.9377 70.6166 22.0205 70.2269L22.766 66.4413C22.8488 65.7732 23.7599 65.2722 24.7538 65.2722H53.246C54.24 65.2722 55.0682 65.7732 55.2339 66.4413L55.9793 70.2269C56.0621 70.6166 55.8965 71.0062 55.4824 71.2846C55.0682 71.6186 54.5713 71.7856 54.0743 71.7856ZM24.4225 70.2825H53.8258L53.1632 66.7753H25.0023L24.4225 70.2825Z" fill="#EB1E30"/>
<path d="M33.6992 58.4804C33.4507 58.4804 33.2023 58.4247 33.0366 58.369C32.4568 58.1464 32.374 57.6453 32.7881 57.3113C32.7881 57.2556 33.6992 56.4206 33.6992 54.5835C33.6992 53.8041 33.4508 53.5257 32.9538 53.1361C32.374 52.5794 31.7114 51.967 31.7114 50.4082C31.7114 49.4062 32.2084 48.9051 32.5397 48.4598C32.871 48.0144 33.2851 47.6247 33.2851 46.2886C33.2851 45.6763 33.0366 45.3979 32.6225 44.9525C32.1255 44.3958 31.6286 43.7835 31.6286 42.5031C31.6286 41.835 32.1255 41.1113 32.5397 40.4433C32.871 39.8866 33.2851 39.3855 33.2851 38.9958C33.2851 37.9381 32.9538 37.4371 32.5397 36.8804C32.2084 36.268 31.7114 35.6556 31.7114 34.3752C31.7114 33.2061 32.5397 32.3711 33.0366 31.8701C33.3679 31.4804 33.6992 31.2577 33.6992 31.035C33.6992 29.2536 32.7881 28.3072 32.7881 28.3072C32.4568 27.9175 32.6225 27.4721 33.1194 27.3051C33.6992 27.0824 34.3618 27.1938 34.6103 27.4721C34.6931 27.5278 35.8527 28.8082 35.8527 31.0907C35.8527 31.8144 35.2729 32.3154 34.8588 32.7608C34.279 33.2618 33.8649 33.7072 33.8649 34.4309C33.8649 35.3773 34.1134 35.8226 34.5275 36.3793C35.0244 36.9917 35.4386 37.7154 35.4386 39.0515C35.4386 39.7195 34.9416 40.4433 34.5275 41.1113C34.1962 41.668 33.7821 42.169 33.7821 42.5587C33.7821 43.4494 34.1134 43.7835 34.5275 44.2845C35.0244 44.7855 35.4386 45.3422 35.4386 46.3443C35.4386 48.0144 34.8588 48.7381 34.4447 49.2391C34.1962 49.6288 33.8649 49.8515 33.8649 50.4082C33.8649 51.4659 34.1962 51.8556 34.6931 52.301C35.2729 52.802 35.8527 53.3587 35.8527 54.6948C35.8527 57.0886 34.6931 58.2577 34.5275 58.369C34.4447 58.369 34.0305 58.4804 33.6992 58.4804Z" fill="#EC1E31"/>
<path d="M38.7516 58.4804C38.5032 58.4804 38.2547 58.4247 38.089 58.369C37.5092 58.1464 37.4264 57.6453 37.8406 57.3113C37.8406 57.2556 38.7516 56.4206 38.7516 54.5835C38.7516 53.8041 38.5032 53.5257 38.0062 53.1361C37.4264 52.5794 36.7638 51.967 36.7638 50.4082C36.7638 49.4062 37.2608 48.9051 37.5921 48.4598C37.9234 48.0144 38.3375 47.6247 38.3375 46.2886C38.3375 45.6763 38.089 45.3979 37.6749 44.9525C37.1779 44.3958 36.681 43.7835 36.681 42.5031C36.681 41.835 37.1779 41.1113 37.5921 40.4433C37.9234 39.8866 38.3375 39.3855 38.3375 38.9958C38.3375 37.9381 38.0062 37.4371 37.5921 36.8804C37.2608 36.268 36.7638 35.6556 36.7638 34.3752C36.7638 33.2061 37.5921 32.3711 38.089 31.8701C38.4203 31.4804 38.7516 31.2577 38.7516 31.035C38.7516 29.2536 37.8406 28.3072 37.8406 28.3072C37.5092 27.9175 37.6749 27.4721 38.1719 27.3051C38.7516 27.0824 39.4143 27.1938 39.6627 27.4721C39.7456 27.5278 40.9051 28.8082 40.9051 31.0907C40.9051 31.8144 40.3253 32.3154 39.9112 32.7608C39.3314 33.2618 38.9173 33.7072 38.9173 34.4309C38.9173 35.3773 39.1658 35.8226 39.5799 36.3793C40.0769 36.9917 40.491 37.7154 40.491 39.0515C40.491 39.7195 39.994 40.4433 39.5799 41.1113C39.2486 41.668 38.8345 42.169 38.8345 42.5587C38.8345 43.4494 39.1658 43.7835 39.5799 44.2845C40.0769 44.7855 40.491 45.3422 40.491 46.3443C40.491 48.0144 39.9112 48.7381 39.4971 49.2391C39.2486 49.6288 38.9173 49.8515 38.9173 50.4082C38.9173 51.4659 39.2486 51.8556 39.7456 52.301C40.3253 52.802 40.9051 53.3587 40.9051 54.6948C40.9051 57.0886 39.7456 58.2577 39.5799 58.369C39.4971 58.369 39.1658 58.4804 38.7516 58.4804Z" fill="#EC1E31"/>
<path d="M43.39 58.4804C43.1415 58.4804 42.893 58.4247 42.7274 58.369C42.1476 58.1464 42.0647 57.6453 42.4789 57.3113C42.4789 57.2556 43.39 56.4206 43.39 54.5835C43.39 53.8041 43.1415 53.5257 42.6445 53.1361C42.0647 52.5794 41.4021 51.967 41.4021 50.4082C41.4021 49.4062 41.8991 48.9051 42.2304 48.4598C42.5617 48.0144 42.9758 47.6247 42.9758 46.2886C42.9758 45.6763 42.7274 45.3979 42.3132 44.9525C41.8163 44.3958 41.3193 43.7835 41.3193 42.5031C41.3193 41.835 41.8163 41.1113 42.2304 40.4433C42.5617 39.8866 42.9758 39.3855 42.9758 38.9958C42.9758 37.9381 42.6445 37.4371 42.2304 36.8804C41.8991 36.268 41.4021 35.6556 41.4021 34.3752C41.4021 33.2061 42.2304 32.3711 42.7274 31.8701C43.0587 31.4804 43.39 31.2577 43.39 31.035C43.39 29.2536 42.4789 28.3072 42.4789 28.3072C42.1476 27.9175 42.3132 27.4721 42.8102 27.3051C43.39 27.0824 44.0526 27.1938 44.3011 27.4721C44.3839 27.5278 45.5434 28.8082 45.5434 31.0907C45.5434 31.8144 44.9637 32.3154 44.5495 32.7608C43.9697 33.2618 43.5556 33.7072 43.5556 34.4309C43.5556 35.3773 43.8041 35.8226 44.2182 36.3793C44.7152 36.9917 45.1293 37.7154 45.1293 39.0515C45.1293 39.7195 44.6324 40.4433 44.2182 41.1113C43.8869 41.668 43.4728 42.169 43.4728 42.5587C43.4728 43.4494 43.8041 43.7835 44.2182 44.2845C44.7152 44.7855 45.1293 45.3422 45.1293 46.3443C45.1293 48.0144 44.5495 48.7381 44.1354 49.2391C43.8869 49.6288 43.5556 49.8515 43.5556 50.4082C43.5556 51.4659 43.8869 51.8556 44.3839 52.301C44.9637 52.802 45.5434 53.3587 45.5434 54.6948C45.5434 57.0886 44.3839 58.2577 44.2182 58.369C44.1354 58.369 43.8041 58.4804 43.39 58.4804Z" fill="#EC1E31"/>
<path d="M43.8869 61.4867H33.6164C30.8003 61.4867 28.4812 59.9836 28.4812 58.0351V27.1382C28.4812 25.2454 30.7175 23.6866 33.6164 23.6866H43.8869C46.703 23.6866 49.0221 25.1897 49.0221 27.1382V58.0908C48.9393 59.9279 46.6202 61.4867 43.8869 61.4867ZM33.6164 25.3011C32.1256 25.3011 30.8003 26.1361 30.8003 27.1939V58.1465C30.8003 59.1485 32.0427 60.0392 33.6164 60.0392H43.8869C45.3778 60.0392 46.703 59.2042 46.703 58.1465V27.1382C46.703 26.1361 45.4606 25.2454 43.8869 25.2454C43.8869 25.3011 33.6164 25.3011 33.6164 25.3011Z" fill="#EC1E31"/>
</svg>
